<svg version="1.1" xmlns="http://www.w3.org/2000/svg" style="display: block;" viewBox="0 0 2048 2048" width="1254" height="1254" preserveAspectRatio="none">
<path transform="translate(0,0)" fill="rgb(0,0,0)" d="M 1533.33 72.4202 C 1561.29 68.6054 1613.22 75.2304 1640.9 82.0644 C 1737.98 105.572 1821.61 166.963 1873.12 252.536 C 1973.03 419.568 1929.69 638.333 1771.14 751.779 C 1759.98 759.765 1749.04 766.555 1737.26 773.605 C 1742.67 795.862 1749.24 815.931 1754.21 839.177 C 1776.02 937.079 1776.81 1038.49 1756.52 1136.72 C 1751.8 1159.45 1746.06 1181.96 1739.32 1204.18 C 1735.89 1215.53 1727.53 1234.64 1727.3 1245.15 C 1727.05 1256.84 1727.18 1270.77 1727.2 1282.68 L 1727.71 1372.48 L 1727.49 1700.42 C 1727.48 1711.86 1728.93 1742.68 1725.8 1751.85 C 1722.41 1761.75 1616.2 1867.1 1601.81 1881.35 C 1595.22 1887.89 1586.84 1896.32 1577.31 1897.56 C 1564.28 1899.27 1550.7 1898.52 1537.56 1898.47 L 1479.82 1898.43 L 1278 1898.41 L 571.25 1898.34 L 301.439 1898.31 L 230.58 1898.66 C 218.517 1898.64 204.242 1898.86 192.455 1897.43 C 179.899 1895.9 165.337 1888.02 158.175 1877.64 C 151.738 1868.31 148.135 1857.2 148.074 1845.81 C 147.882 1809.89 148.002 1773.85 148.028 1737.94 L 148.052 1531.42 L 148.051 892.871 L 148.056 583.453 C 148.148 556.672 148.103 529.89 147.92 503.109 C 147.864 490.577 147.133 469.399 148.748 457.865 C 150.36 446.354 177.955 420.982 186.558 412.117 L 243.834 353.244 C 258.183 338.521 272.558 323.795 286.959 309.125 C 295.727 300.192 301.324 294.493 314.702 294.363 C 357.288 293.951 399.884 294.139 442.469 294.141 L 690.587 294.145 L 942.517 294.129 C 986.884 294.133 1032.4 293.582 1076.68 294.583 C 1120.87 295.581 1163.17 302.775 1206.3 311.69 C 1258.76 173.151 1387.51 84.1205 1533.33 72.4202 z"/>
<path transform="translate(0,0)" fill="rgb(254,254,254)" d="M 1008.54 363.433 C 1071.63 360.245 1125.64 370.151 1186.55 382.809 C 1174.14 437.104 1180.81 507.869 1198.34 560.729 C 1230.06 657.679 1299.55 737.73 1391.08 782.752 C 1478.33 826.53 1579.46 833.583 1671.94 802.341 C 1676.84 816.527 1682.64 841.747 1685.87 856.759 C 1705.8 945.848 1706.08 1038.21 1686.68 1127.42 C 1650.92 1295.38 1549.21 1441.96 1404.39 1534.25 C 1265.3 1624.17 1096.2 1655.19 934.245 1620.5 C 849.445 1600.33 797.648 1577.58 724.146 1532.1 C 711.434 1535.88 690.639 1544.72 677.847 1549.7 L 594.936 1581.6 L 482.988 1624.41 C 460.468 1632.93 434.648 1641.97 412.832 1651.29 C 419.021 1624.07 428.021 1594.11 435.493 1567.05 C 448.885 1517.5 462.536 1468.02 476.445 1418.61 C 485.108 1387.61 495.315 1354 502.821 1323 C 494.144 1304.49 481.737 1284.72 472.085 1263.93 C 437.077 1189.38 416.483 1108.89 411.388 1026.68 C 401.773 860.116 458.496 696.516 569.155 571.649 C 681.828 446.211 840.105 371.206 1008.54 363.433 z"/>
<path transform="translate(0,0)" fill="rgb(0,0,0)" d="M 786.856 682.347 C 803.993 680.883 819.294 684.201 833.581 694.055 C 842.212 700.008 848.669 706.99 854.42 715.723 C 866.198 733.608 911.545 829.172 914.749 848.108 C 915.598 853.125 915.813 858.239 914.316 863.154 C 907.263 886.303 871.865 916.849 856.837 937.865 L 856.118 938.891 C 881.506 1005.64 946.193 1078.52 1005.35 1117.7 C 1030.92 1134.63 1095.47 1171.18 1125.86 1166.88 C 1155.75 1162.65 1180.59 1087.52 1212.85 1083.16 C 1219.95 1081.8 1228.2 1083.26 1235 1085.88 C 1258.03 1095.7 1282.52 1107.43 1304.18 1120.33 C 1324.25 1132.28 1384.51 1157.78 1387.56 1182.52 C 1391.05 1210.88 1375.79 1251.27 1359.24 1273.98 C 1255.44 1410.69 1031.4 1301.15 925.094 1219.67 C 819.558 1138.79 704.985 1006.26 679.116 871.291 C 669.769 822.529 686.889 767.067 717.049 728.912 C 735.365 705.563 756.304 686.473 786.856 682.347 z"/>
<path transform="translate(0,0)" fill="rgb(239,251,27)" d="M 1552.16 118.821 C 1732.34 117.176 1879.69 261.998 1881.16 442.18 C 1882.64 622.361 1737.68 769.574 1557.49 770.876 C 1377.55 772.176 1230.58 627.451 1229.11 447.513 C 1227.64 267.574 1372.22 120.465 1552.16 118.821 z"/>
<path transform="translate(0,0)" fill="rgb(0,0,0)" d="M 1551.61 232.052 C 1578.84 230.498 1582.97 253.731 1583.42 274.953 C 1608.41 288.323 1621.1 287.258 1644.18 311.473 C 1682.12 351.276 1680.19 385.259 1680.22 435.369 L 1680.22 509.793 C 1692.42 521.803 1721.43 543.96 1724.62 558.664 C 1729.75 582.372 1664.29 576.439 1650.93 576.456 L 1560.3 576.524 L 1461.11 576.471 C 1440.52 576.453 1419.96 576.843 1399.37 575.079 C 1391.36 576.023 1382.06 566.597 1383.96 558.476 C 1387.48 543.502 1419.63 519.028 1430.2 509.493 L 1430.03 437.525 C 1430 421.105 1429.48 403.649 1430.86 387.793 C 1434.73 343.622 1461.75 302.03 1503.46 285.192 C 1508.56 283.133 1525.96 277.372 1526.72 272.209 C 1529.74 251.578 1528.65 239.523 1551.61 232.052 z"/>
<path transform="translate(0,0)" fill="rgb(0,0,0)" d="M 1516.4 598.576 C 1520.4 598.287 1524.41 598.087 1528.42 597.976 C 1537.97 597.698 1603.44 596.226 1608.83 601.312 C 1613.99 612.87 1589.74 636.494 1580.92 643.022 C 1577.54 644.938 1574.02 646.603 1570.4 648.003 C 1540.07 659.791 1509.91 636.184 1498.65 608.959 C 1497.34 605.785 1497.59 603.861 1498.99 600.955 C 1503.55 598.18 1510.8 598.713 1516.4 598.576 z"/>
<path transform="translate(0,0)" fill="rgb(239,251,27)" d="M 747.125 338.479 C 763.769 338.723 780.416 338.663 797.058 338.299 C 791.325 340.888 784.753 343.512 778.876 345.798 C 736.889 362.126 699.945 383.395 661.796 407.036 L 440.484 407.038 L 377.133 407.034 C 360.934 407.037 332.375 404.335 322.548 417.02 C 314.809 427.008 275.131 461.975 271.453 471.17 C 265.903 485.047 268.068 551.537 268.059 567.914 L 268.072 722.461 L 268.018 1171.84 L 268.083 1556.03 L 268.066 1685.23 C 268.074 1706.24 267.366 1733.29 268.375 1753.99 C 268.628 1760.09 271.134 1765.89 275.409 1770.26 C 282.965 1777.95 292.572 1777.5 302.503 1777.54 L 1199.86 1777.59 L 1446.55 1777.56 L 1515.66 1777.58 C 1530.57 1777.57 1554.47 1780.67 1564.13 1768.71 C 1570.28 1761.1 1607.84 1728.83 1608.47 1720.52 C 1611.01 1686.89 1609.8 1650.82 1609.78 1616.99 L 1609.91 1435.2 C 1641.19 1398.28 1656.86 1372.22 1682.66 1332.79 C 1683.45 1363.23 1682.68 1397.69 1682.7 1428.5 L 1682.66 1735.81 C 1644.83 1771.85 1602.41 1816.94 1565.81 1854.82 C 1468.24 1856.31 1367.12 1854.98 1269.34 1854.98 L 697.195 1854.96 L 367.394 1854.98 L 260.608 1855.02 C 242.59 1855.03 224.508 1855.2 206.506 1854.79 C 198.726 1854.62 194.172 1846.63 194.11 1839.54 C 193.958 1822.02 193.977 1804.51 193.983 1786.99 L 194.001 1687.68 L 194.018 1383.18 L 194.083 468.685 C 208.373 452.378 227.451 433.505 242.669 417.75 L 318.58 338.48 C 424.774 340.348 531.723 337.456 638.015 338.622 C 674.141 339.018 711.028 339.123 747.125 338.479 z"/>
</svg>